<svg xmlns="http://www.w3.org/2000/svg" width="13.139" height="20.667" viewBox="0 0 13.139 20.667">
  <g id="female" transform="translate(-93.249)">
    <path id="Path_19087" data-name="Path 19087" d="M177.566,299.147h-1.552a.332.332,0,0,1-.332-.332V294.99h-2.425v3.824a.332.332,0,0,1-.332.332h-1.552a.332.332,0,0,0-.332.332v1.761a.332.332,0,0,0,.332.332h1.552a.332.332,0,0,1,.332.332v1.513a.332.332,0,0,0,.332.332h1.761a.332.332,0,0,0,.332-.332V301.9a.332.332,0,0,1,.332-.332h1.552a.332.332,0,0,0,.332-.332v-1.761A.332.332,0,0,0,177.566,299.147Z" transform="translate(-74.651 -283.083)" fill="#ef687e"/>
    <path id="Path_19088" data-name="Path 19088" d="M225.96,294.991v2.223a7.708,7.708,0,0,0,2.425,0v-2.223Z" transform="translate(-127.354 -283.084)" fill="#e63952"/>
    <path id="Path_19089" data-name="Path 19089" d="M99.818,0a6.569,6.569,0,1,0,6.569,6.569A6.569,6.569,0,0,0,99.818,0Zm0,10.714a4.144,4.144,0,1,1,4.144-4.144A4.144,4.144,0,0,1,99.818,10.714Z" fill="#f996b1"/>
    <g id="Group_2781" data-name="Group 2781" transform="translate(94.449)">
      <path id="Path_19090" data-name="Path 19090" d="M127.733,60.127a4.144,4.144,0,1,0,0,8.2,4.145,4.145,0,0,1,0-8.2Z" transform="translate(-122.976 -57.657)" fill="#f28598"/>
      <path id="Path_19091" data-name="Path 19091" d="M241.435,0c-.207,0-.411.01-.613.029a6.569,6.569,0,0,1,0,13.081c.2.019.406.029.613.029a6.569,6.569,0,1,0,0-13.139Z" transform="translate(-236.065)" fill="#f28598"/>
    </g>
  </g>
</svg>
