<svg xmlns="http://www.w3.org/2000/svg" width="24.087" height="16.679" viewBox="0 0 24.087 16.679">
  <g id="group" transform="translate(0.001)">
    <path id="Path_19092" data-name="Path 19092" d="M259.453,133.9a6.78,6.78,0,0,0-11.67,0,2.732,2.732,0,0,0-.02,2.776,2.763,2.763,0,0,0,2.427,1.412h6.857a2.764,2.764,0,0,0,2.427-1.412A2.732,2.732,0,0,0,259.453,133.9Zm0,0" transform="translate(-235.757 -124.427)" fill="#19cffc"/>
    <path id="Path_19093" data-name="Path 19093" d="M383.1,131.468a6.775,6.775,0,0,0-3.407-.917h0v7.515h3.429a2.763,2.763,0,0,0,2.427-1.412,2.732,2.732,0,0,0-.02-2.776,6.817,6.817,0,0,0-2.428-2.409Zm0,0" transform="translate(-361.834 -124.409)" fill="#4ab8f7"/>
    <path id="Path_19094" data-name="Path 19094" d="M305.272,1.115A3.807,3.807,0,1,0,299.888,6.5a3.807,3.807,0,1,0,5.384-5.384Zm0,0" transform="translate(-284.719)" fill="#ffd2bf"/>
    <path id="Path_19095" data-name="Path 19095" d="M382.388,1.133A3.8,3.8,0,0,0,379.7.019V7.63h0a3.805,3.805,0,0,0,2.692-6.5Zm0,0" transform="translate(-361.834 -0.019)" fill="#ffb89c"/>
    <path id="Path_19096" data-name="Path 19096" d="M12.058,133.9a6.78,6.78,0,0,0-11.67,0,2.732,2.732,0,0,0-.02,2.776,2.763,2.763,0,0,0,2.427,1.412H9.652a2.763,2.763,0,0,0,2.427-1.412,2.732,2.732,0,0,0-.021-2.776Zm0,0" transform="translate(0 -124.427)" fill="#27488f"/>
    <path id="Path_19097" data-name="Path 19097" d="M135.708,131.468a6.775,6.775,0,0,0-3.407-.917h0v7.515h3.429a2.763,2.763,0,0,0,2.427-1.412,2.732,2.732,0,0,0-.02-2.776,6.817,6.817,0,0,0-2.428-2.409Zm0,0" transform="translate(-126.078 -124.409)" fill="#12254c"/>
    <path id="Path_19098" data-name="Path 19098" d="M57.877,1.115A3.807,3.807,0,1,0,52.493,6.5a3.807,3.807,0,1,0,5.384-5.384Zm0,0" transform="translate(-48.963)" fill="#ffd2bf"/>
    <path id="Path_19099" data-name="Path 19099" d="M134.993,1.133A3.8,3.8,0,0,0,132.3.019V7.63h0a3.805,3.805,0,0,0,2.692-6.5Zm0,0" transform="translate(-126.078 -0.019)" fill="#ffb89c"/>
    <path id="Path_19100" data-name="Path 19100" d="M135.756,198.127a6.78,6.78,0,0,0-11.67,0,2.732,2.732,0,0,0-.02,2.776,2.763,2.763,0,0,0,2.427,1.412h6.857a2.763,2.763,0,0,0,2.427-1.412A2.732,2.732,0,0,0,135.756,198.127Zm0,0" transform="translate(-117.88 -185.637)" fill="#fe6a16"/>
    <path id="Path_19101" data-name="Path 19101" d="M259.4,195.714A6.776,6.776,0,0,0,256,194.8h0v7.515h3.429a2.763,2.763,0,0,0,2.427-1.412,2.732,2.732,0,0,0-.021-2.776,6.816,6.816,0,0,0-2.428-2.409Zm0,0" transform="translate(-243.954 -185.633)" fill="#ff432e"/>
    <path id="Path_19102" data-name="Path 19102" d="M181.612,65.38a3.805,3.805,0,1,0,0,5.384,3.811,3.811,0,0,0,0-5.384Zm0,0" transform="translate(-166.878 -61.243)" fill="#ffd2bf"/>
    <path id="Path_19103" data-name="Path 19103" d="M258.689,65.379A3.8,3.8,0,0,0,256,64.266v7.61h0a3.805,3.805,0,0,0,2.692-6.5Zm0,0" transform="translate(-243.954 -61.242)" fill="#ffb89c"/>
  </g>
</svg>
