<?xml version="1.0" encoding="UTF-8"?>
<svg xmlns="http://www.w3.org/2000/svg" xmlns:xlink="http://www.w3.org/1999/xlink" width="20px" height="25px" viewBox="0 0 20 24" version="1.1">
<g id="surface1">
<path style=" stroke:none;fill-rule:nonzero;fill:rgb(0%,0%,0%);fill-opacity:1;" d="M 7.132812 0 C 6.710938 0 6.371094 0.480469 6.371094 0.894531 L 6.371094 1.25 C 6.371094 1.542969 6.542969 1.792969 6.789062 1.917969 C 6.785156 1.964844 6.78125 2.015625 6.78125 2.0625 L 6.78125 9.109375 C 6.667969 9.316406 6.558594 9.535156 6.441406 9.75 L 0.277344 20.699219 C -0.714844 22.492188 1.175781 24.015625 2.285156 24.015625 L 17.707031 24.015625 C 18.816406 24.015625 20.726562 22.527344 19.714844 20.699219 L 13.550781 9.75 C 13.433594 9.535156 13.324219 9.316406 13.210938 9.109375 L 13.210938 2.0625 C 13.210938 2.015625 13.207031 1.964844 13.203125 1.917969 C 13.453125 1.792969 13.621094 1.542969 13.621094 1.25 L 13.621094 0.894531 C 13.621094 0.480469 13.285156 0 12.863281 0 Z M 7.132812 0 "/>
<path style=" stroke:none;fill-rule:nonzero;fill:rgb(100%,100%,100%);fill-opacity:1;" d="M 8.8125 8.851562 L 11.191406 8.851562 C 12.136719 8.851562 12.445312 9.714844 12.898438 10.539062 L 18.265625 20.289062 C 19.351562 22.261719 17.503906 23.125 16.558594 23.125 L 3.441406 23.125 C 2.496094 23.125 0.769531 22.046875 1.734375 20.289062 L 7.105469 10.539062 C 7.554688 9.714844 7.867188 8.851562 8.8125 8.851562 Z M 8.8125 8.851562 "/>
<path style=" stroke:none;fill-rule:nonzero;fill:rgb(100%,100%,100%);fill-opacity:1;" d="M 7.558594 1.515625 L 12.4375 1.515625 L 12.4375 10.296875 L 7.558594 10.296875 Z M 7.558594 1.515625 "/>
<path style=" stroke:none;fill-rule:nonzero;fill:rgb(100%,100%,100%);fill-opacity:1;" d="M 7.125 1.304688 L 7.125 0.957031 C 7.125 0.777344 7.273438 0.636719 7.453125 0.636719 L 12.535156 0.636719 C 12.714844 0.636719 12.863281 0.777344 12.863281 0.957031 L 12.863281 1.304688 C 12.863281 1.480469 12.714844 1.625 12.535156 1.625 L 7.453125 1.625 C 7.273438 1.625 7.125 1.480469 7.125 1.304688 Z M 7.125 1.304688 "/>
<path style=" stroke:none;fill-rule:nonzero;fill:rgb(80%,0%,0%);fill-opacity:1;" d="M 13.132812 11.972656 L 17.417969 19.976562 C 18.355469 21.730469 16.746094 22.484375 15.910156 22.484375 L 4.3125 22.484375 C 3.476562 22.484375 1.945312 21.527344 2.800781 19.976562 L 7.003906 12.386719 C 10.71875 13.816406 12.070312 9.839844 13.132812 11.972656 Z M 13.132812 11.972656 "/>
<path style=" stroke:none;fill-rule:nonzero;fill:rgb(100%,100%,100%);fill-opacity:1;" d="M 10.523438 17.792969 C 10.523438 18.542969 9.90625 19.152344 9.140625 19.152344 C 8.375 19.152344 7.753906 18.542969 7.753906 17.792969 C 7.753906 17.042969 8.375 16.433594 9.140625 16.433594 C 9.90625 16.433594 10.523438 17.042969 10.523438 17.792969 Z M 10.523438 17.792969 "/>
<path style=" stroke:none;fill-rule:nonzero;fill:rgb(100%,100%,100%);fill-opacity:1;" d="M 8.554688 16.164062 C 8.554688 16.609375 8.191406 16.96875 7.738281 16.96875 C 7.285156 16.96875 6.921875 16.609375 6.921875 16.164062 C 6.921875 15.722656 7.285156 15.363281 7.738281 15.363281 C 8.191406 15.363281 8.554688 15.722656 8.554688 16.164062 Z M 8.554688 16.164062 "/>
<path style=" stroke:none;fill-rule:nonzero;fill:rgb(100%,100%,100%);fill-opacity:1;" d="M 11.785156 14.601562 C 11.785156 14.863281 11.570312 15.074219 11.304688 15.074219 C 11.035156 15.074219 10.820312 14.863281 10.820312 14.601562 C 10.820312 14.339844 11.035156 14.125 11.304688 14.125 C 11.570312 14.125 11.785156 14.339844 11.785156 14.601562 Z M 11.785156 14.601562 "/>
<path style=" stroke:none;fill-rule:nonzero;fill:rgb(0%,0%,0%);fill-opacity:1;" d="M 11.242188 1.699219 C 11.433594 1.699219 11.59375 1.851562 11.59375 2.042969 L 11.59375 8.867188 C 11.59375 9.058594 11.433594 9.214844 11.242188 9.214844 C 11.046875 9.214844 10.890625 9.058594 10.890625 8.867188 L 10.890625 2.042969 C 10.890625 1.851562 11.046875 1.699219 11.242188 1.699219 Z M 11.242188 1.699219 "/>
</g>
</svg>
