<svg xmlns="http://www.w3.org/2000/svg" width="18.667" height="18.667" viewBox="0 0 18.667 18.667">
  <g id="male" transform="translate(0 0)">
    <path id="Path_19085" data-name="Path 19085" d="M65.211,11.733a4.607,4.607,0,0,1-7.868,3.258H55.917L55.7,16.636A6.934,6.934,0,0,0,66.257,7.722L70.009,3.97V6.587h2.326V0L64.229,6.939l-.37,1.536a4.6,4.6,0,0,1,1.352,3.258Z" transform="translate(-53.668)" fill="#c50048"/>
    <path id="Path_19086" data-name="Path 19086" d="M12.078,2.325H14.7L10.945,6.078A6.934,6.934,0,0,0,2.031,16.636l1.645-1.645a4.607,4.607,0,1,1,6.516-6.516L18.667,0H12.078Z" transform="translate(0)" fill="#ff5b5b"/>
  </g>
</svg>
